<?xml version="1.0" standalone="no"?>
<!DOCTYPE svg PUBLIC "-//W3C//DTD SVG 20010904//EN"
 "http://www.w3.org/TR/2001/REC-SVG-20010904/DTD/svg10.dtd">
<svg version="1.0" xmlns="http://www.w3.org/2000/svg"
 width="541.000000pt" height="541.000000pt" viewBox="0 0 541.000000 541.000000"
 preserveAspectRatio="xMidYMid meet">

<g transform="translate(0.000000,541.000000) scale(0.100000,-0.100000)"
fill="#000000" stroke="none">
<path d="M3305 4360 c66 -7 103 -26 141 -74 l25 -31 -3 45 c-3 42 -5 45 -43
56 -22 7 -71 12 -110 12 l-70 -1 60 -7z"/>
<path d="M3179 4340 c-77 -40 -119 -115 -119 -210 0 -126 73 -200 212 -216 66
-8 169 10 186 33 6 9 12 33 11 52 0 21 -3 30 -7 21 -20 -43 -48 -71 -88 -86
-36 -14 -51 -15 -90 -5 -62 16 -90 36 -119 85 -70 120 -51 259 44 323 41 28
20 30 -30 3z"/>
<path d="M3661 4228 c-53 -26 -96 -84 -117 -155 -31 -105 22 -208 131 -259
127 -60 266 5 313 145 41 118 -45 265 -168 287 -35 6 -35 6 10 -17 62 -33 90
-89 90 -180 0 -134 -67 -249 -145 -249 -45 0 -85 20 -119 60 -89 106 -32 352
89 383 14 3 11 5 -10 6 -16 0 -50 -9 -74 -21z"/>
<path d="M4206 3983 c-7 -21 -273 -242 -312 -259 l-25 -10 70 -86 c89 -108
132 -132 226 -126 76 5 131 37 180 106 39 57 42 144 7 210 -18 35 -89 129
-132 176 -4 4 -11 -1 -14 -11z m108 -130 c20 -40 21 -103 1 -151 -33 -77 -155
-172 -222 -172 -52 0 -153 83 -153 126 0 11 68 69 259 222 l64 51 17 -22 c9
-12 25 -36 34 -54z"/>
<path d="M3310 3676 c-81 -13 -145 -32 -186 -54 -11 -6 -57 -29 -103 -52 -120
-59 -217 -134 -390 -301 -26 -25 -71 -78 -71 -84 0 -3 -22 -39 -50 -80 -73
-108 -156 -308 -176 -424 -21 -120 -25 -163 -18 -178 4 -10 8 -27 9 -38 6 -60
37 -147 71 -199 26 -38 27 -38 72 -31 26 4 56 7 67 7 25 0 159 50 163 60 2 5
11 8 21 8 61 0 270 189 342 310 33 56 99 197 109 235 3 12 11 32 39 99 12 27
21 53 21 58 0 16 81 150 129 213 61 80 207 225 227 225 6 0 120 67 139 82 6 4
21 16 34 26 37 28 15 54 -76 92 -68 28 -92 33 -183 36 -58 2 -143 -3 -190 -10z"/>
<path d="M4527 3526 c-7 -17 -338 -128 -383 -128 l-32 0 49 -146 c38 -114 49
-160 49 -210 0 -50 3 -62 13 -54 15 13 33 15 135 13 l82 -1 0 -33 c0 -44 -18
-59 -116 -97 -104 -39 -124 -58 -124 -115 0 -24 -5 -47 -11 -51 -19 -11 -59
-107 -59 -142 0 -50 25 -99 62 -122 64 -39 103 -24 200 79 60 65 70 71 106 71
38 0 62 -16 75 -50 3 -8 6 -2 6 13 1 45 -56 97 -105 97 -47 0 -71 -16 -152
-97 -55 -55 -67 -63 -100 -63 -75 0 -105 73 -59 140 31 46 65 69 117 79 l45 8
-40 18 c-30 13 -43 15 -57 6 -20 -13 -25 1 -5 17 6 5 50 24 96 42 63 25 87 39
100 61 20 36 27 36 35 3 12 -45 50 -74 99 -74 77 0 107 58 107 207 0 81 0 82
-22 74 -33 -13 -385 -1 -404 14 -14 9 -9 13 27 24 l43 13 -39 14 c-22 7 -48
23 -57 34 -22 27 -53 123 -45 142 3 9 44 27 91 42 48 15 92 29 99 32 25 9 61
-146 37 -161 -28 -17 -4 -22 37 -8 43 15 45 17 25 26 -23 11 -58 73 -68 122
-6 30 -5 30 80 58 47 16 91 25 96 22 11 -7 6 27 -11 73 -10 26 -15 27 -22 8z
m121 -558 c5 -40 -24 -88 -65 -104 -72 -31 -133 12 -133 93 l0 44 98 -3 97 -3
3 -27z"/>
<path d="M3785 3473 c-68 -35 -218 -156 -290 -235 -126 -136 -203 -264 -261
-434 -79 -235 -145 -340 -271 -433 -37 -27 -77 -59 -89 -70 -25 -25 -138 -78
-246 -116 -48 -17 -80 -34 -83 -45 -4 -13 -25 -20 -93 -29 -89 -12 -177 -36
-199 -54 -7 -5 -13 -18 -13 -28 0 -15 -7 -19 -38 -19 -29 0 -45 -7 -67 -30
-38 -39 -81 -41 -111 -3 -19 24 -27 26 -75 25 -43 -2 -58 -7 -76 -27 -31 -35
-86 -35 -109 0 -14 22 -24 25 -73 25 -48 0 -61 -4 -81 -25 -16 -17 -34 -25
-56 -25 -23 0 -38 7 -52 25 -17 22 -28 25 -80 25 -53 0 -62 -3 -76 -25 -12
-18 -25 -25 -49 -25 -23 0 -41 8 -57 25 -20 21 -33 25 -82 25 -50 0 -60 -3
-74 -25 -23 -36 -85 -36 -108 0 -15 22 -24 25 -76 25 -52 0 -61 -3 -76 -25
-23 -36 -85 -36 -108 0 -14 22 -24 25 -74 25 -49 0 -62 -4 -81 -24 -27 -29
-80 -38 -136 -23 -36 9 -45 7 -82 -16 -35 -22 -42 -32 -49 -74 -8 -41 -14 -51
-46 -68 -33 -17 -39 -27 -49 -72 -11 -46 -10 -55 4 -71 21 -23 22 -56 1 -73
-29 -24 4 -139 40 -139 22 0 43 -33 51 -78 6 -36 13 -46 51 -68 38 -23 48 -24
77 -15 48 16 117 3 140 -26 16 -19 28 -23 77 -23 51 0 60 3 74 25 23 36 87 36
110 0 15 -22 24 -25 76 -25 52 0 61 3 76 25 13 20 25 25 55 25 30 0 42 -5 55
-25 14 -22 23 -25 74 -25 51 0 61 3 78 25 28 35 83 35 110 0 17 -21 28 -25 77
-25 49 0 60 4 77 25 27 34 76 34 108 0 20 -21 33 -25 81 -25 49 0 59 3 73 25
23 35 80 35 108 0 17 -22 27 -25 78 -25 52 0 62 3 76 25 13 19 25 25 54 25 29
0 41 -6 54 -25 14 -22 24 -25 76 -25 51 0 61 3 78 25 28 35 85 35 108 0 14
-22 23 -25 76 -25 52 0 63 3 80 25 27 34 79 34 106 0 17 -21 28 -25 77 -25 49
0 60 4 77 25 27 34 76 34 108 0 20 -21 33 -25 81 -25 49 0 59 3 73 25 23 35
80 35 108 0 17 -22 27 -25 78 -25 52 0 62 3 76 25 13 19 25 25 54 25 29 0 41
-6 54 -25 14 -22 24 -25 76 -25 51 0 61 3 78 25 28 35 85 35 108 0 14 -22 23
-25 76 -25 52 0 63 3 80 25 27 34 79 34 106 0 17 -22 28 -25 80 -25 53 0 62 3
76 25 23 35 80 35 108 0 17 -22 27 -25 78 -25 52 0 62 3 76 25 23 36 85 36
108 0 14 -22 24 -25 76 -25 51 0 61 3 78 25 28 35 83 35 110 0 17 -21 28 -25
75 -25 52 0 58 3 82 34 31 41 74 60 119 53 29 -5 38 0 72 34 35 36 38 43 35
90 -2 48 0 53 38 89 37 36 41 44 41 89 0 43 -4 52 -32 76 -47 39 -58 63 -51
113 5 39 3 46 -28 78 -30 31 -38 34 -92 34 -56 0 -61 2 -96 40 -34 38 -40 40
-93 40 -48 0 -58 -3 -72 -25 -23 -35 -80 -35 -108 0 -17 22 -27 25 -78 25 -52
0 -62 -3 -76 -25 -23 -36 -85 -36 -108 0 -14 22 -24 25 -76 25 -51 0 -61 -3
-78 -25 -28 -35 -85 -35 -108 0 -14 22 -23 25 -76 25 -52 0 -63 -3 -80 -25
-27 -34 -79 -34 -106 0 -17 22 -28 25 -80 25 -53 0 -62 -3 -76 -25 -24 -36
-73 -34 -111 5 -24 25 -37 30 -75 30 -38 0 -51 -5 -73 -28 -24 -25 -33 -28
-64 -23 -35 6 -60 31 -30 31 16 0 47 31 47 48 0 18 -56 42 -142 61 l-81 17
107 65 c59 35 124 74 144 85 84 49 253 227 335 352 117 178 164 280 188 411
18 101 19 135 3 261 -12 93 -69 210 -102 210 -9 -1 -39 -13 -67 -27z m-1435
-1503 c22 -7 21 -8 -12 -9 -21 -1 -38 4 -38 9 0 11 14 11 50 0z m-1668 -45
c17 -22 27 -25 88 -25 63 0 71 2 86 25 11 17 25 25 44 25 19 0 33 -8 44 -25
15 -23 23 -25 86 -25 61 0 71 3 88 25 12 15 30 25 45 25 15 0 31 -9 41 -25 15
-23 23 -25 87 -25 64 0 73 3 91 25 11 14 30 25 43 25 13 0 32 -11 43 -25 18
-22 27 -25 90 -25 63 0 71 2 86 25 10 15 26 25 39 25 13 0 34 -11 47 -25 21
-22 32 -25 92 -25 61 0 69 2 84 25 10 16 26 25 41 25 15 0 33 -10 45 -25 17
-22 27 -25 88 -25 61 0 71 3 88 25 12 15 30 25 45 25 15 0 31 -9 41 -25 15
-23 23 -25 86 -25 61 0 71 3 88 25 12 15 30 25 46 25 16 0 31 -9 42 -25 15
-23 23 -25 86 -25 63 0 72 3 90 25 11 14 30 25 43 25 13 0 32 -11 43 -25 18
-22 27 -25 90 -25 63 0 71 2 86 25 22 33 62 33 88 0 17 -22 27 -25 88 -25 63
0 71 2 86 25 22 34 66 34 88 0 15 -23 23 -25 86 -25 61 0 71 3 88 25 26 33 65
33 86 0 15 -23 23 -25 84 -25 60 0 71 3 92 25 30 32 65 32 86 0 15 -23 22 -25
89 -25 67 0 74 2 89 25 21 32 56 32 86 0 21 -22 32 -25 92 -25 61 0 69 2 84
25 21 33 60 33 86 0 17 -22 27 -25 88 -25 61 0 71 3 88 25 12 15 30 25 45 25
15 0 31 -9 41 -25 15 -23 23 -25 84 -25 60 0 71 3 92 25 32 34 64 32 90 -5 26
-37 83 -62 132 -59 52 4 71 -15 65 -65 -7 -47 20 -107 58 -132 36 -23 34 -67
-5 -95 -34 -26 -53 -73 -49 -123 4 -46 -15 -66 -63 -66 -49 0 -111 -31 -140
-70 -28 -38 -57 -38 -91 0 -24 26 -34 30 -82 30 -46 0 -59 -5 -88 -30 -19 -16
-40 -30 -47 -30 -7 0 -28 14 -48 31 -32 29 -40 31 -93 27 -48 -4 -62 -9 -79
-31 -28 -35 -51 -34 -88 3 -27 26 -37 30 -87 30 -51 0 -60 -3 -83 -30 -33 -38
-57 -38 -92 0 -25 27 -35 30 -85 30 -50 0 -60 -3 -85 -30 -35 -38 -59 -38 -92
0 -23 27 -32 30 -83 30 -50 0 -60 -4 -87 -30 -16 -16 -37 -30 -47 -30 -10 0
-30 14 -44 30 -24 26 -34 30 -82 30 -46 0 -59 -5 -88 -30 -19 -16 -40 -30 -47
-30 -7 0 -28 14 -47 30 -29 25 -42 30 -88 30 -48 0 -58 -4 -82 -30 -14 -17
-34 -30 -44 -30 -10 0 -31 14 -47 30 -27 26 -37 30 -87 30 -51 0 -60 -3 -83
-30 -15 -16 -35 -30 -45 -30 -11 0 -32 14 -47 30 -25 27 -35 30 -85 30 -50 0
-60 -3 -85 -30 -35 -38 -59 -38 -92 0 -23 27 -33 30 -82 30 -47 0 -60 -4 -89
-30 -19 -17 -41 -30 -49 -30 -8 0 -27 14 -41 30 -24 26 -34 30 -82 30 -46 0
-59 -5 -88 -30 -43 -38 -58 -38 -95 0 -27 26 -37 30 -87 30 -51 0 -60 -3 -83
-30 -33 -38 -57 -38 -92 0 -25 27 -35 30 -85 30 -50 0 -60 -3 -85 -30 -15 -16
-36 -30 -47 -30 -10 0 -30 14 -45 30 -23 27 -32 30 -82 30 -49 0 -60 -4 -88
-30 -39 -38 -57 -38 -90 0 -23 27 -33 30 -82 30 -47 0 -60 -4 -89 -30 -19 -16
-40 -30 -47 -30 -7 0 -28 14 -47 30 -29 25 -42 30 -88 30 -48 0 -58 -4 -82
-30 -33 -37 -58 -38 -91 -2 -22 24 -38 30 -90 35 -39 4 -71 3 -83 -4 -32 -16
-69 13 -69 54 0 35 -47 97 -73 97 -19 0 -30 45 -17 70 13 25 13 103 -1 117
-17 17 0 60 30 73 33 13 61 58 61 97 0 37 36 58 76 43 43 -17 145 4 168 35 26
32 62 32 88 0z"/>
<path d="M521 1858 c-76 -22 -149 -97 -171 -177 -30 -110 28 -236 132 -289
l45 -22 2172 0 c1927 0 2176 2 2208 15 97 41 156 127 155 229 0 33 -6 77 -15
97 -20 49 -72 106 -121 132 l-41 22 -2165 2 c-1393 1 -2177 -2 -2199 -9z m249
-133 c58 -30 77 -112 40 -172 -24 -40 -50 -54 -100 -55 -71 -1 -123 52 -123
123 0 92 98 148 183 104z m459 -11 c17 -14 36 -43 42 -64 22 -73 -41 -153
-119 -152 -52 1 -78 15 -102 55 -24 38 -25 87 -5 127 32 63 129 81 184 34z
m446 -6 c83 -76 36 -208 -74 -210 -118 -1 -173 130 -86 210 28 26 43 32 80 32
37 0 52 -6 80 -32z m425 17 c58 -30 77 -112 40 -172 -21 -36 -43 -50 -80 -53
-54 -5 -73 1 -106 34 -30 30 -34 40 -34 86 0 46 4 56 34 86 28 28 42 34 75 34
23 0 55 -7 71 -15z m459 -11 c17 -14 36 -43 42 -64 22 -73 -41 -153 -119 -152
-95 1 -151 97 -107 182 32 63 129 81 184 34z m432 9 c31 -18 59 -67 59 -103 0
-37 -31 -90 -63 -106 -64 -33 -142 -11 -171 50 -20 42 -20 69 -1 106 34 66
113 90 176 53z m439 2 c91 -47 73 -197 -27 -224 -80 -22 -153 35 -153 118 0
97 92 151 180 106z m459 -11 c17 -14 36 -43 42 -64 22 -73 -41 -153 -119 -152
-95 1 -151 97 -107 182 32 63 129 81 184 34z m432 9 c73 -43 77 -159 6 -206
-47 -31 -107 -25 -151 14 -61 53 -58 130 6 184 36 30 96 33 139 8z m447 -3
c85 -52 63 -192 -34 -219 -81 -22 -154 34 -154 118 0 101 100 155 188 101z"/>
<path d="M677 1703 c-4 -3 -7 -14 -7 -24 0 -9 -10 -19 -24 -23 -13 -3 -27 -13
-30 -22 -9 -22 11 -54 34 -54 13 0 20 -7 20 -20 0 -23 32 -43 54 -34 9 3 19
17 22 30 4 13 15 24 27 26 17 2 23 11 25 35 3 27 -1 33 -22 39 -14 3 -27 15
-30 30 -5 18 -13 24 -35 24 -15 0 -31 -3 -34 -7z"/>
<path d="M1115 1688 c-3 -13 -16 -28 -28 -33 -32 -14 -31 -69 1 -73 14 -2 22
-10 22 -22 0 -11 9 -24 20 -30 26 -14 60 3 60 30 0 13 7 20 20 20 23 0 43 32
34 54 -3 9 -17 19 -30 22 -13 4 -24 15 -26 27 -2 17 -11 23 -35 25 -27 3 -33
-1 -38 -20z"/>
<path d="M1567 1704 c-4 -4 -7 -16 -7 -26 0 -11 -7 -18 -19 -18 -27 0 -44 -26
-37 -55 5 -18 13 -25 31 -25 20 0 25 -5 25 -24 0 -24 20 -35 53 -28 10 2 17
13 17 27 0 16 6 25 21 27 49 7 50 69 1 76 -12 2 -22 12 -24 25 -2 15 -11 23
-28 25 -14 2 -29 0 -33 -4z"/>
<path d="M2007 1703 c-4 -3 -7 -14 -7 -24 0 -9 -10 -19 -24 -23 -13 -3 -27
-13 -30 -22 -9 -22 11 -54 34 -54 13 0 20 -7 20 -20 0 -27 34 -44 60 -30 11 6
20 19 20 30 0 12 8 20 23 22 17 2 23 11 25 35 3 27 -1 33 -22 39 -14 3 -27 15
-30 30 -5 18 -13 24 -35 24 -15 0 -31 -3 -34 -7z"/>
<path d="M2452 1698 c-6 -6 -12 -17 -12 -23 0 -5 -10 -15 -22 -20 -17 -7 -23
-18 -23 -40 0 -23 5 -31 23 -33 14 -2 22 -10 22 -22 0 -11 9 -24 20 -30 26
-14 60 3 60 30 0 13 7 20 20 20 27 0 44 34 30 60 -6 11 -19 20 -30 20 -12 0
-20 8 -22 23 -3 25 -45 36 -66 15z"/>
<path d="M2897 1703 c-4 -3 -7 -14 -7 -24 0 -10 -9 -19 -21 -21 -12 -2 -27
-11 -33 -20 -14 -23 3 -52 33 -56 14 -2 21 -11 21 -27 0 -40 64 -41 74 0 4 14
15 25 29 27 31 4 32 59 0 73 -12 5 -26 19 -32 32 -10 22 -49 32 -64 16z"/>
<path d="M3337 1703 c-4 -3 -7 -14 -7 -24 0 -10 -11 -19 -26 -23 -21 -6 -25
-11 -22 -39 2 -24 8 -33 26 -35 14 -2 22 -10 22 -22 0 -11 9 -24 20 -30 26
-14 60 3 60 30 0 12 8 20 23 22 17 2 23 11 25 35 3 27 -1 33 -22 39 -14 3 -27
15 -30 30 -5 18 -13 24 -35 24 -15 0 -31 -3 -34 -7z"/>
<path d="M3782 1698 c-6 -6 -12 -17 -12 -23 0 -5 -10 -15 -22 -20 -32 -14 -33
-69 -1 -73 12 -2 23 -13 27 -26 3 -13 13 -27 22 -30 22 -9 54 11 54 34 0 13 7
20 19 20 46 0 51 65 6 76 -14 3 -25 15 -27 27 -4 26 -46 35 -66 15z"/>
<path d="M4227 1703 c-4 -3 -7 -14 -7 -24 0 -10 -9 -19 -21 -21 -12 -2 -27
-11 -33 -20 -14 -23 3 -52 33 -56 13 -2 21 -11 21 -22 0 -42 66 -46 76 -4 4
13 15 24 27 26 31 4 31 59 0 73 -12 5 -26 19 -32 32 -10 22 -49 32 -64 16z"/>
<path d="M4667 1703 c-4 -3 -7 -14 -7 -24 0 -10 -11 -19 -26 -23 -21 -6 -25
-11 -22 -39 2 -24 8 -33 26 -35 14 -2 22 -10 22 -22 0 -11 9 -24 20 -30 26
-14 60 3 60 30 0 12 8 20 23 22 17 2 23 11 25 35 3 27 -1 33 -22 39 -14 3 -27
15 -30 30 -5 18 -13 24 -35 24 -15 0 -31 -3 -34 -7z"/>
<path d="M4594 3328 c1 -34 -5 -55 -22 -77 -26 -35 -24 -36 23 -17 40 17 40
22 15 91 l-18 50 2 -47z"/>
<path d="M4558 2460 c-17 -42 -68 -80 -105 -80 -34 0 -28 -15 12 -27 32 -10
37 -9 59 18 24 28 63 116 55 123 -2 3 -11 -13 -21 -34z"/>
</g>
</svg>
