<svg version="1.1" id="Layer_1" xmlns="http://www.w3.org/2000/svg" xmlns:xlink="http://www.w3.org/1999/xlink" x="0px" y="0px"
	 width="100%" viewBox="0 0 1024 1024" enable-background="new 0 0 1024 1024" xml:space="preserve">
<path fill="#FFFFFE" opacity="1.000000" stroke="none" 
	d="
M679.000000,1025.000000 
	C454.166656,1025.000000 229.833328,1024.989136 5.500043,1025.093506 
	C1.750793,1025.095215 0.905801,1024.249146 0.906913,1020.500000 
	C1.007246,682.166687 1.007246,343.833344 0.906913,5.500028 
	C0.905801,1.750903 1.750902,0.905800 5.500028,0.906912 
	C343.833344,1.007255 682.166687,1.007255 1020.500000,0.906912 
	C1024.249146,0.905800 1025.094360,1.750902 1025.093262,5.500027 
	C1024.992920,343.833344 1024.992798,682.166687 1025.093140,1020.500000 
	C1025.094238,1024.249146 1024.249512,1025.098389 1020.499878,1025.094604 
	C906.833313,1024.978638 793.166687,1025.000000 679.000000,1025.000000 
z"/>
<path fill="#512716" opacity="1.000000" stroke="none" 
	d="
M322.543335,525.733521 
	C322.980194,529.584839 321.593170,532.863770 320.384949,536.068665 
	C315.753662,548.353699 310.888000,560.550354 306.098969,572.775818 
	C303.396057,579.675781 300.000153,586.197754 294.656647,591.431885 
	C292.577881,593.468018 291.187042,595.072388 293.640930,597.728760 
	C294.258423,598.397156 294.299561,600.040527 293.338959,600.411865 
	C289.327850,601.962524 288.263885,605.748169 287.535004,609.043701 
	C286.102386,615.520935 279.755463,619.360229 279.067810,626.060791 
	C279.019684,626.529968 278.952972,627.353394 278.753906,627.399292 
	C272.441345,628.851196 274.412720,635.855835 270.662354,639.431946 
	C267.185425,642.747314 265.180359,647.827271 263.445526,652.726074 
	C262.659424,654.945923 261.274719,657.657776 259.355347,659.304260 
	C255.297333,662.785217 253.279144,667.383301 251.318726,672.062317 
	C250.101318,674.967896 248.035049,677.082825 245.550751,678.785156 
	C243.283752,680.338623 243.357880,683.089661 241.920990,685.035889 
	C236.603165,692.238953 231.619980,699.705688 225.477997,706.261353 
	C224.325089,707.492004 223.090393,708.630981 223.584976,710.384094 
	C224.049835,712.031921 223.054199,712.060181 222.087296,712.043030 
	C218.646057,711.982361 217.394287,714.963074 216.923660,717.090210 
	C216.061554,720.986816 213.639481,722.809265 210.795837,725.096008 
	C207.120789,728.051331 204.492081,732.268311 201.071503,735.590698 
	C197.656509,738.907715 194.856445,742.775513 190.761902,745.556458 
	C188.401443,747.159729 186.302429,749.717651 184.334442,752.014099 
	C181.817215,754.951416 179.116821,758.013245 176.573929,760.652405 
	C174.081192,763.239380 170.824249,765.729797 167.839127,768.191772 
	C165.115784,770.437927 162.742401,772.909668 160.100784,775.652466 
	C159.331055,776.860779 158.372406,777.196106 157.151123,777.678101 
	C153.134506,780.445190 147.996384,781.407837 148.455307,788.198303 
	C148.626862,790.736572 144.226456,792.967957 141.481705,794.842651 
	C134.068222,799.906067 126.693695,805.032837 119.158287,809.909790 
	C110.805107,815.316040 102.452255,821.049072 92.955597,823.997498 
	C87.980911,825.542053 82.725838,822.631348 78.756462,818.926636 
	C77.594749,817.842285 77.209709,816.136230 74.995270,816.928467 
	C74.046379,817.267883 72.689255,816.188599 72.748550,815.382935 
	C73.066933,811.056763 69.223167,809.029053 67.737511,805.739075 
	C66.595421,803.209900 63.017078,802.600403 62.927315,799.129578 
	C62.815643,794.811890 58.334389,792.505981 57.215183,789.132629 
	C52.673248,775.442871 43.442238,763.695984 41.099030,749.121643 
	C40.164589,743.309570 35.249176,738.495056 35.432243,732.510193 
	C35.589378,727.373047 33.243069,723.462769 31.487852,719.155518 
	C31.370186,718.866821 31.008209,718.412659 31.068529,718.354248 
	C35.287964,714.268555 28.810495,711.877930 29.495369,708.259888 
	C30.286804,704.078796 30.154396,699.069946 28.100630,696.075073 
	C25.772020,692.679443 28.371611,690.388794 27.664579,687.749390 
	C26.325743,682.751343 24.480185,677.869019 24.333727,672.610107 
	C24.203024,667.916931 24.352743,663.195068 23.871475,658.538269 
	C23.368502,653.671387 24.871634,648.953796 24.257168,644.044983 
	C23.858355,640.859009 25.254652,637.491638 25.299335,634.198120 
	C25.397135,626.989380 26.932322,619.930359 27.375954,612.826416 
	C27.704033,607.572754 29.111328,602.757507 30.354769,597.463135 
	C29.852119,595.843933 30.126539,594.501465 30.477947,592.834045 
	C30.354521,590.813843 29.601192,589.269653 29.177383,587.314941 
	C28.861506,582.120911 30.657272,577.653625 31.782133,573.010254 
	C34.615864,561.312561 38.081711,549.812988 42.031536,538.466431 
	C44.454720,531.505432 46.789482,524.368286 52.369781,519.076111 
	C54.162369,517.376099 54.247135,515.566895 53.295036,513.624817 
	C52.772579,512.559082 51.818954,511.136810 52.930859,510.599792 
	C57.457802,508.413239 57.585835,503.647766 58.197968,500.091187 
	C59.274376,493.837097 65.521629,490.002502 65.081909,483.371735 
	C65.060677,483.051514 65.032135,482.501038 65.179016,482.433899 
	C70.131042,480.169067 68.311279,474.386902 70.673042,471.448212 
	C73.670143,467.718933 74.903557,463.504883 76.943108,459.535156 
	C82.046074,449.602905 86.597679,439.351807 92.284271,429.770966 
	C94.886673,425.386383 95.892220,419.518250 99.237778,416.657867 
	C103.743553,412.805573 102.515656,406.816589 106.903572,403.080994 
	C109.288368,401.050781 112.870422,397.517212 111.509247,392.894440 
	C111.231972,391.952759 111.937447,392.134338 112.213692,392.077087 
	C116.751915,391.136322 118.064926,387.941315 117.651680,383.875885 
	C117.394165,381.342590 121.939964,382.176544 120.877274,378.946533 
	C121.769020,378.898254 122.553787,379.466949 122.906334,378.631439 
	C124.874519,373.967041 128.158127,369.780182 131.427475,366.500122 
	C134.780212,363.136475 136.111954,358.521881 140.192642,355.470856 
	C142.994232,353.376190 145.433105,349.307068 147.541779,345.804016 
	C149.018478,343.350769 151.968430,341.547302 151.356750,338.051514 
	C156.638885,337.323059 157.107346,331.665558 160.573456,328.988312 
	C162.949875,327.152832 164.974838,324.707428 166.509445,321.569031 
	C167.232239,319.720459 168.820175,318.997070 169.760590,317.362671 
	C170.326599,316.563934 170.721252,316.047058 171.289886,315.260864 
	C171.637024,314.860474 171.790192,314.714783 172.206635,314.398621 
	C173.584061,313.723022 174.645523,313.154053 175.348938,311.703186 
	C176.607056,310.228516 176.010010,308.624908 176.560181,306.964539 
	C179.229645,300.987213 184.577133,297.811798 188.816467,293.748993 
	C195.925934,286.935608 202.950211,280.006104 210.523392,273.653046 
	C216.317627,268.792328 221.920624,263.810974 229.052490,260.979065 
	C229.659119,260.738190 230.870956,260.693665 230.887497,260.485413 
	C231.619629,251.255569 243.002579,251.963348 245.714508,244.598709 
	C245.889099,244.124557 246.750290,243.773697 247.358063,243.609085 
	C252.183273,242.302200 255.968491,239.694946 258.259491,235.138092 
	C258.402985,234.852692 258.738373,234.366852 258.843262,234.401535 
	C264.485626,236.266541 265.084320,229.961243 268.588348,228.413300 
	C272.526947,226.673401 276.142944,224.222229 279.055695,221.261688 
	C284.794556,215.428558 292.922668,213.226974 298.710144,207.829407 
	C305.208038,201.769287 314.575287,200.054398 320.171021,192.873138 
	C325.606781,194.256866 327.010498,187.976807 331.224579,187.054962 
	C336.099518,185.988525 339.918274,183.240265 343.305237,179.708603 
	C344.820221,178.128876 346.957733,179.531967 348.965668,178.629547 
	C352.338043,177.113861 353.438782,173.399094 357.593445,172.334869 
	C366.450317,170.066177 374.327881,164.853531 382.887634,161.663010 
	C388.639374,159.519150 394.989319,158.479614 400.408203,155.658066 
	C404.743317,153.400818 409.591797,154.081955 413.544678,151.961716 
	C416.015381,150.636520 420.091217,152.203690 421.044952,148.089096 
	C423.713501,151.049240 425.999176,147.585175 428.481995,147.655670 
	C433.400970,147.795334 438.465363,145.637314 441.927887,143.685669 
	C457.130035,135.116959 473.597809,138.462036 489.466370,136.754227 
	C493.146027,136.358215 496.942810,136.013382 500.852295,136.538513 
	C506.405151,137.284393 511.752563,138.158386 516.715759,140.845459 
	C517.245483,141.132263 518.260925,141.376251 518.563477,141.102081 
	C524.566650,135.661880 529.981506,143.470200 535.585693,141.871170 
	C542.506165,139.896576 547.672607,147.564743 554.538513,144.815964 
	C558.127686,150.123352 564.758972,147.204773 569.455383,150.418991 
	C573.150391,152.947876 578.200134,153.855148 582.791992,154.629211 
	C589.166260,155.703751 594.301758,160.472198 595.079468,167.130188 
	C596.356506,178.062820 591.419128,183.975800 580.055054,185.339508 
	C577.680481,185.624481 576.349670,188.102783 574.263855,188.899277 
	C567.902771,191.328400 562.378906,195.687256 555.594421,197.049667 
	C553.722717,197.425507 553.433899,199.301178 551.813293,200.013000 
	C548.709290,201.376389 546.312073,204.115479 542.534058,204.285095 
	C538.795715,204.452942 537.955078,208.778015 534.159180,209.989517 
	C525.701904,212.688766 518.661926,218.731918 510.660248,222.514282 
	C504.794922,225.286835 499.460571,228.702057 494.502014,232.559494 
	C489.907684,236.133560 484.187225,237.760529 480.023071,241.868576 
	C476.136902,245.702362 471.097443,247.764725 466.581879,250.636658 
	C464.044220,252.250626 461.126495,253.932510 461.088226,257.720947 
	C461.067596,259.763977 459.038055,260.120514 457.801270,261.041351 
	C415.836609,292.286255 380.045563,329.293701 352.787781,374.147125 
	C344.396332,387.955475 337.326752,402.429810 334.658997,418.670013 
	C333.733978,424.301147 334.260529,429.585358 336.648010,434.726898 
	C338.864410,439.500000 339.656067,443.732941 337.640076,449.440857 
	C336.049744,453.943604 334.966766,459.312134 333.958191,464.297119 
	C332.705841,470.487091 330.813171,476.754486 330.453644,482.987213 
	C330.123810,488.704163 327.317291,493.589600 327.013092,499.308411 
	C326.689362,505.394379 324.257324,511.323120 321.583191,516.984802 
	C320.787140,518.670166 319.839081,520.647766 320.564575,523.116577 
	C320.245514,524.988953 321.817383,524.791321 322.543335,525.733521 
z"/>
<path fill="#522716" opacity="1.000000" stroke="none" 
	d="
M151.763519,827.210205 
	C155.712631,822.106506 161.689713,820.296204 166.241898,816.458069 
	C173.792587,810.091553 181.915848,804.409302 189.673416,798.281189 
	C195.747177,793.483337 201.730835,788.585938 209.364777,786.448669 
	C211.251221,785.920471 212.574387,784.173767 212.132401,783.039673 
	C210.678574,779.309143 212.834061,778.994873 215.480560,778.178894 
	C219.172485,777.040710 220.866287,773.355957 223.205322,770.674072 
	C224.037704,769.719727 224.598434,768.599670 225.812653,767.685242 
	C228.456985,765.693604 231.182495,764.078796 233.285782,760.961548 
	C236.685822,755.922363 242.015442,752.227600 246.188644,747.653503 
	C249.284668,744.260071 251.854919,740.384338 254.629379,736.700806 
	C256.640961,734.030151 258.273773,730.972717 260.667755,728.716003 
	C263.971283,725.602051 266.527191,722.071838 268.442230,718.061035 
	C269.948761,714.906006 271.997009,712.351624 274.859802,710.344116 
	C277.629730,708.401733 278.192963,704.905762 279.859100,702.222961 
	C284.053650,695.469238 287.776276,688.422913 292.439240,681.936584 
	C294.347595,679.282043 296.410309,676.003052 297.338745,673.528687 
	C300.425720,665.301453 306.488342,659.046753 310.048492,651.305420 
	C312.377014,646.242249 316.529938,641.658752 317.913879,636.841431 
	C319.765259,630.397034 325.304657,625.202881 324.429718,618.008118 
	C324.082275,615.151062 327.652252,616.391846 328.007019,614.022461 
	C328.544342,610.433899 331.133728,607.235840 330.139801,603.307617 
	C334.272217,602.295410 333.116089,598.093323 334.740784,595.553528 
	C336.677399,592.526245 338.282684,589.257996 339.228058,585.330750 
	C339.033661,584.117798 339.245819,583.312805 339.258575,582.222900 
	C339.133881,581.941345 339.066620,581.984497 339.061829,581.944824 
	C338.567657,581.571655 338.222717,581.129089 338.001770,580.277588 
	C337.728271,573.880493 341.635010,569.040894 343.086975,563.414978 
	C345.511932,554.019043 348.694397,544.821167 351.277435,535.462585 
	C353.419006,527.703674 354.806091,519.708069 359.972595,513.129639 
	C361.079590,511.720154 360.951874,511.619781 358.657990,509.996521 
	C357.929474,509.480927 357.917877,505.301208 358.943756,504.298523 
	C362.794159,500.535095 362.708557,495.934875 361.914948,491.199371 
	C361.512909,488.800446 363.188019,486.212952 364.063446,485.504364 
	C367.050323,483.086731 365.763916,480.009094 366.126556,477.391785 
	C366.406433,475.371887 366.271515,474.244843 368.335541,472.824768 
	C370.387329,471.413025 369.545715,467.870056 370.416748,465.284210 
	C372.208282,459.965820 374.532227,454.712982 375.501343,449.107971 
	C377.055695,440.118469 382.853943,432.671661 384.647278,423.762329 
	C385.815857,417.957062 390.051392,413.603119 392.095795,408.071442 
	C395.169556,399.754395 399.728088,391.985992 403.656372,383.984802 
	C404.726654,381.804871 404.074615,378.963470 407.463837,377.635834 
	C409.108459,376.991577 410.430145,374.059875 410.516785,371.399658 
	C410.615509,368.367401 411.500824,366.407227 414.827667,364.473633 
	C418.460602,362.362122 420.611053,357.436676 422.793762,353.540863 
	C425.078033,349.463776 428.403442,346.308777 431.206573,342.947784 
	C439.241089,333.314301 448.512054,324.716370 458.487762,317.011688 
	C498.441132,286.153992 542.727722,264.316986 592.445618,254.703323 
	C616.308838,250.089050 640.595581,251.079712 664.653870,254.019135 
	C676.190247,255.428619 685.633911,262.366608 694.624146,269.081238 
	C696.987854,270.846649 701.309753,274.082794 699.630554,279.857056 
	C698.684082,283.111511 702.566650,286.793915 703.285278,290.802856 
	C703.802795,293.689636 703.944092,296.280884 703.252563,299.042572 
	C692.691956,341.214661 672.212402,378.180786 643.593445,410.593231 
	C604.096985,455.324860 558.618103,493.185547 508.677002,525.725525 
	C492.378418,536.345154 476.730011,547.971558 459.708710,557.472839 
	C458.325317,558.245056 457.042053,559.487183 454.847595,559.038513 
	C454.861511,555.768372 456.426514,552.987854 457.533813,550.135864 
	C472.692352,511.092468 489.905396,472.917389 506.347748,434.414398 
	C516.450989,410.755798 527.427002,387.400269 534.364563,362.497498 
	C535.346802,358.971558 536.033325,355.368958 536.051331,351.672974 
	C536.066772,348.501831 536.488098,345.224854 532.450867,343.848450 
	C531.531128,343.534912 531.157471,342.396484 531.034973,341.345215 
	C530.594360,337.562256 528.115662,336.208679 524.721436,336.600830 
	C522.364868,336.873138 520.837830,336.554321 520.328613,333.988647 
	C520.076111,332.716125 519.248901,331.702820 517.866699,332.156616 
	C513.142639,333.707489 512.114807,330.375916 511.019836,327.129028 
	C507.754242,317.445984 501.445221,315.105652 492.462494,320.410675 
	C486.280304,324.061737 482.098663,329.731659 478.024139,335.425751 
	C455.939880,366.288269 439.385620,400.208618 423.670959,434.551056 
	C402.335876,481.176331 383.741150,528.793518 372.541016,579.029175 
	C367.100006,603.433533 362.440765,627.962097 361.509033,652.999878 
	C360.545990,678.878174 365.403564,703.359619 380.891907,724.853516 
	C386.142883,732.140625 392.620575,737.951721 401.299500,741.054871 
	C405.076019,742.405151 408.240204,744.762146 410.977814,747.852295 
	C415.599701,753.069275 426.921783,753.008240 431.379883,748.008423 
	C435.380157,743.522095 433.860382,735.143616 427.854706,730.484375 
	C424.788544,728.105591 424.475830,724.810852 424.091766,721.609558 
	C420.404999,690.877441 421.336151,660.458679 430.635620,630.646851 
	C432.020111,626.208557 433.177155,621.699341 434.557556,617.259766 
	C435.408630,614.522400 437.074127,612.389465 440.253571,612.614380 
	C453.385437,613.543152 465.424133,608.827698 477.743225,605.530701 
	C507.152893,597.659607 536.898193,594.322266 567.230042,598.940796 
	C572.351868,599.720703 577.319641,601.055847 582.028015,603.214355 
	C588.407410,606.138977 590.044067,608.925476 588.744629,615.865906 
	C586.259644,629.139221 582.755310,642.111633 576.314453,654.125122 
	C551.599182,700.224182 515.921814,735.307373 469.792694,759.758911 
	C442.782471,774.076111 414.580170,785.263123 384.277344,790.459595 
	C370.431366,792.833984 356.433197,793.010559 342.439575,792.654785 
	C336.847961,792.512695 331.823151,790.359680 327.063416,787.372925 
	C320.741241,783.405762 314.654602,778.950073 307.425446,776.634277 
	C305.702850,776.082458 303.713165,775.239807 302.402618,777.140320 
	C301.262756,778.793457 302.627899,780.411621 303.461182,781.719421 
	C309.331818,790.933411 317.161316,798.438782 324.944763,805.973450 
	C325.781860,806.783691 326.780914,807.440063 327.549377,808.305847 
	C341.605103,824.141785 360.153870,829.677795 380.367462,832.049194 
	C396.365601,833.926025 412.233704,833.884094 428.591309,831.475952 
	C429.158386,831.679810 429.267395,831.956726 429.212708,832.649048 
	C427.280884,834.754639 424.791046,835.674316 423.694305,838.078064 
	C423.628296,838.222717 423.640228,838.403015 423.615967,838.566711 
	C413.138855,835.596558 411.865234,847.488342 404.652710,850.278809 
	C386.912903,857.142273 370.143158,866.500061 351.457031,870.930359 
	C349.765961,871.331299 347.893311,870.908447 346.111298,870.996460 
	C342.784363,871.160583 338.514069,869.447754 337.771179,875.066345 
	C337.722534,875.434021 336.522644,876.069763 336.144531,875.908691 
	C332.187927,874.223694 328.908569,876.694580 325.322845,877.397644 
	C322.181061,878.013733 319.888580,881.128662 316.253571,880.147400 
	C312.305878,879.081543 309.478516,882.322449 306.045288,882.998718 
	C303.518707,883.496399 300.957520,882.937744 298.157379,883.795837 
	C290.402527,886.172180 282.159363,886.302002 274.221130,888.458984 
	C268.933746,889.895630 262.781128,888.066650 257.296967,889.571289 
	C248.376343,892.018677 239.253296,890.411743 230.270782,891.154236 
	C223.531540,891.711243 215.990906,890.759644 208.867188,889.303528 
	C205.252686,888.564697 201.286789,889.306702 197.643295,887.757751 
	C194.094177,886.249084 190.305450,888.825439 186.380707,887.126953 
	C185.658813,886.516968 185.313965,885.588440 184.917419,885.565796 
	C179.341675,885.247498 174.370209,882.470886 168.764908,881.819580 
	C165.622101,881.454407 162.086197,879.668945 158.837799,878.382446 
	C150.534851,875.094177 142.641586,870.765930 133.860123,868.691467 
	C132.688950,868.414856 131.836380,867.385071 132.035080,866.657349 
	C132.831390,863.740784 130.657623,861.903015 129.498016,859.995972 
	C126.902130,855.727051 127.130386,852.021484 129.984589,848.142273 
	C130.498734,847.443542 131.385941,846.275513 130.360153,845.479736 
	C127.740700,843.447754 130.536438,843.524536 131.291977,843.128967 
	C137.983063,839.625610 145.201080,837.034180 150.995789,831.396729 
	C152.362946,829.997742 151.088318,828.636719 151.763519,827.210205 
z"/>
<path fill="#E6C571" opacity="1.000000" stroke="none" 
	d="
M925.993530,703.427551 
	C923.963745,702.787842 920.527832,704.252197 921.887695,699.725281 
	C916.701294,699.033081 916.710815,692.765381 912.524048,690.986145 
	C912.107361,690.809082 911.415894,690.262390 911.462646,690.156067 
	C914.688782,682.823547 906.209656,684.059875 903.940857,680.608398 
	C901.233154,676.489014 897.156616,673.192627 895.783997,668.055969 
	C895.622803,667.452698 895.345093,666.359863 895.140747,666.364441 
	C888.600769,666.510559 886.083740,659.944275 880.678772,657.693176 
	C875.502075,655.537170 871.599670,650.154114 867.363281,645.961060 
	C864.019653,642.651611 860.362915,639.539185 857.373474,636.029053 
	C851.986938,629.704285 844.597656,625.558228 839.686584,618.827209 
	C839.022827,617.917419 837.983521,617.227966 837.009888,616.606018 
	C822.951233,607.626282 810.175537,596.864868 796.464844,587.414368 
	C787.873291,581.492432 778.675171,576.438538 770.185730,570.383240 
	C757.838379,561.576172 743.618103,556.312805 730.565796,548.843994 
	C726.523804,546.531067 721.954773,544.474304 717.425659,542.705078 
	C712.698669,540.858582 711.880310,536.847412 715.480835,533.256531 
	C718.214111,530.530518 718.730164,527.591492 719.074219,523.931885 
	C719.584167,518.507812 719.889404,512.761902 723.628479,508.192261 
	C724.545349,507.071686 724.421387,505.963806 724.579407,504.653351 
	C724.986145,501.280701 725.710205,497.886902 728.617493,495.393616 
	C731.656067,492.787842 732.016602,489.070465 731.237427,485.484772 
	C730.753052,483.255585 731.224609,481.195740 732.319336,479.838593 
	C733.776489,478.032257 734.375000,476.797302 733.104492,474.684601 
	C732.613281,473.867828 732.483459,472.412079 734.716675,473.369049 
	C736.659790,474.201752 738.025146,472.062012 737.729126,470.517975 
	C736.081665,461.924744 737.398438,454.128021 743.002502,447.227448 
	C743.285583,446.878845 743.510010,445.972260 743.500854,445.968567 
	C738.234497,443.831299 741.811035,439.201477 742.273865,437.129272 
	C744.283997,428.129181 743.290039,418.959198 744.878662,409.949066 
	C746.070862,403.187683 746.287109,396.134094 746.414246,389.132324 
	C746.509949,383.863037 744.575073,378.227325 747.441467,373.055298 
	C747.817139,372.377533 748.045898,371.328888 747.803406,370.642548 
	C745.228943,363.355103 747.088623,355.609253 745.349854,348.202332 
	C744.321472,343.821289 745.150330,339.277618 745.966187,334.833008 
	C750.606567,309.553131 743.940979,286.733185 730.855713,265.278595 
	C725.742310,256.894592 720.862854,248.368073 715.851013,239.921753 
	C713.049377,235.200195 715.051880,231.000107 720.416016,230.473450 
	C721.040955,230.412079 722.233826,230.484711 722.236938,230.543854 
	C722.482239,235.216888 726.091125,232.952438 728.286804,233.486649 
	C733.866760,234.844223 738.537109,238.174149 743.450134,240.832809 
	C748.822510,243.740067 752.204224,249.596741 758.367615,251.650284 
	C760.549316,252.377197 761.499023,254.311615 762.354736,256.436554 
	C762.759888,257.442657 762.717468,261.438721 765.826660,258.337280 
	C768.018433,262.592377 773.639465,261.076752 776.217773,264.433044 
	C777.621582,266.260345 778.332703,268.366821 781.369812,267.296875 
	C782.085083,267.044861 782.831116,267.943939 781.761414,269.244049 
	C780.093750,271.270996 782.082336,272.424927 783.622803,272.655396 
	C790.892700,273.742889 796.164124,277.914551 800.596558,283.346710 
	C801.695190,284.693146 802.138611,286.574188 802.911011,288.270599 
	C804.739929,288.451721 804.154358,286.049042 805.722717,285.838593 
	C807.872803,289.507690 813.864319,289.607086 814.427856,294.985260 
	C819.267761,294.114014 821.046448,298.420959 824.031799,300.675751 
	C832.134766,306.795746 838.931702,314.231323 845.960571,321.508606 
	C849.154236,324.815216 853.253052,327.879913 855.839111,331.482208 
	C860.644592,338.176178 867.243469,342.970917 872.392456,349.288452 
	C878.214722,356.432129 884.785950,363.077728 890.640564,370.239166 
	C899.019775,380.488525 907.530457,390.754639 914.680603,401.853851 
	C924.253357,416.713623 934.794678,430.950775 943.480103,446.393188 
	C948.637878,455.563660 954.482056,464.389923 959.704590,473.452515 
	C962.696106,478.643738 966.568726,484.662933 966.193359,491.714630 
	C965.982727,495.670654 968.048706,499.001495 971.405884,501.208557 
	C973.341064,502.480835 973.955872,504.382111 974.007446,506.313477 
	C974.059387,508.258636 973.957397,509.592651 976.268066,510.488434 
	C977.588684,511.000458 979.340088,512.836731 975.559875,513.507385 
	C973.334900,513.902100 974.376709,516.212158 975.468323,517.508728 
	C980.912354,523.974365 984.367371,531.148743 983.728394,540.269958 
	C983.659851,540.888611 983.631165,541.083313 983.895081,541.238708 
	C986.205078,541.219788 986.060547,543.172913 986.962708,544.197327 
	C989.964111,547.605469 986.865967,552.383362 990.141785,555.972961 
	C993.227539,559.354309 992.124512,564.547485 993.879700,568.690552 
	C995.710571,573.012268 995.396362,577.802979 996.355286,582.352234 
	C998.092468,590.594360 999.795227,599.089050 999.583984,607.429443 
	C999.360474,616.254028 1000.746460,624.926636 1000.497559,633.763428 
	C1000.204102,644.186829 1000.643738,654.722229 998.873230,664.951965 
	C996.144836,680.715759 993.590820,696.468384 986.450134,711.320374 
	C981.831238,720.927429 979.071838,731.500916 973.615112,740.867188 
	C971.841125,743.912292 969.979675,746.851379 967.062378,748.920349 
	C964.014099,751.082214 962.151245,752.941589 957.137268,750.102051 
	C950.630310,746.416992 947.810364,742.010376 945.516541,735.475403 
	C944.052856,731.305542 939.809021,728.111023 936.804993,724.484680 
	C936.703491,724.362183 936.454407,724.329468 936.402832,724.202576 
	C933.518616,717.101074 925.967957,712.388367 925.993530,703.427551 
z"/>
<path fill="#E6C570" opacity="1.000000" stroke="none" 
	d="
M929.649780,762.407104 
	C933.760254,768.148682 935.590759,774.606628 938.492432,780.536926 
	C940.341125,784.315063 938.512817,787.920288 935.657471,790.413574 
	C928.438049,796.717773 921.348755,803.245483 912.764526,807.768188 
	C900.752930,814.096680 890.293823,823.225403 876.895142,827.102539 
	C870.176025,829.046936 863.427856,831.166382 857.404175,834.997864 
	C856.342468,835.673279 854.320190,836.423584 853.683838,835.928345 
	C849.201294,832.440247 847.256042,836.728699 844.029785,838.233093 
	C839.996704,840.113708 835.150085,840.536011 830.598206,840.921509 
	C827.305969,841.200378 824.095886,840.535461 820.732483,841.947083 
	C818.205139,843.007751 815.251648,843.339905 812.162842,841.618835 
	C808.991150,839.851501 805.490112,842.500977 802.507812,843.524780 
	C799.976868,844.393616 797.588684,845.511353 795.093567,844.878418 
	C793.199341,844.397949 792.003113,844.201416 790.922485,846.019226 
	C790.648376,846.480469 789.450134,846.986816 789.336609,846.863708 
	C784.536682,841.657959 779.836243,847.086853 775.147217,847.206421 
	C770.099487,847.335083 765.451782,846.660522 760.928406,844.805725 
	C759.379700,844.170654 759.585327,844.188049 758.477478,845.679810 
	C756.148438,848.815857 751.756775,847.320435 748.428528,847.394653 
	C741.818054,847.542114 735.153931,846.651672 728.559387,845.815918 
	C720.050781,844.737366 711.680237,842.838196 703.275391,841.153381 
	C698.270386,840.150146 693.136230,839.283813 688.123901,838.170349 
	C675.932068,835.461853 663.773682,832.672424 651.715881,829.288879 
	C633.935364,824.299377 616.920288,817.323669 599.911072,810.441345 
	C591.605347,807.080505 583.744385,802.143372 575.439758,798.597839 
	C567.890747,795.375000 560.997253,791.117432 553.769165,787.406799 
	C548.629333,784.768127 548.570679,784.208130 553.236877,781.151184 
	C576.175537,766.123413 596.140259,748.038696 611.457275,725.073853 
	C622.184326,708.990845 630.111755,691.629517 634.702637,672.908997 
	C636.368530,666.115417 640.310303,660.879272 644.476501,656.101440 
	C647.295959,652.867920 649.301331,649.106262 651.553101,645.755432 
	C656.064026,639.042664 660.999329,632.577515 665.115479,625.498108 
	C671.836792,613.937988 678.706116,602.401428 685.971252,591.144043 
	C689.465393,585.729797 691.563904,579.592468 695.851501,574.520996 
	C699.222900,570.533264 702.815002,570.167297 706.899414,571.512878 
	C710.983459,572.858337 715.000183,574.659790 718.716309,576.827393 
	C735.410889,586.565002 753.251892,594.307983 768.982361,605.739868 
	C770.652832,606.953796 773.024170,607.174011 775.015320,607.989502 
	C775.916443,608.358582 777.060303,608.864868 777.451416,609.635193 
	C780.846558,616.322388 789.063660,616.005066 793.464966,620.504211 
	C798.369141,625.517395 805.439819,627.679138 809.272644,634.129272 
	C811.137451,637.267456 814.047607,640.629272 818.545044,641.401123 
	C820.854980,641.797607 822.759033,643.651123 823.687805,645.679504 
	C824.433838,647.308777 824.928711,648.187073 826.799377,647.904602 
	C827.372803,647.818054 828.566833,648.263000 828.559814,648.424316 
	C828.238403,655.757385 835.645508,654.801147 839.154541,657.890198 
	C842.816711,661.114258 847.686646,665.653931 849.582642,671.695801 
	C850.904602,672.454529 849.856567,668.275818 852.454712,670.613586 
	C863.726746,680.755981 875.115845,690.613892 884.545105,702.749573 
	C888.929749,708.392639 893.656799,713.982910 898.138123,719.622375 
	C907.123718,730.930054 916.896667,741.688110 924.020020,754.408875 
	C925.545227,757.132446 927.631104,759.542114 929.649780,762.407104 
z"/>
<path fill="#522817" opacity="1.000000" stroke="none" 
	d="
M619.773132,599.234863 
	C610.178223,587.226746 600.210449,576.039246 589.231812,565.779297 
	C585.085388,561.904297 580.692871,558.444519 575.422791,556.063660 
	C569.962280,553.596802 569.852539,552.438232 574.549805,548.916565 
	C605.660767,525.591614 635.151489,500.422028 662.176331,472.419342 
	C677.228882,456.822174 691.533997,440.578766 704.930359,423.529938 
	C705.939270,422.246063 706.602905,418.770905 709.043579,420.640900 
	C711.224915,422.312286 709.808289,427.530426 709.481384,427.680481 
	C704.655518,429.895447 707.782410,434.347931 706.856567,437.420288 
	C703.867432,447.339935 704.165283,458.090881 700.192993,467.886749 
	C699.521729,469.542053 699.856873,471.145447 699.787781,472.774872 
	C699.382690,482.323730 692.500977,490.396149 693.529968,500.268433 
	C689.243713,501.495331 690.872314,505.569977 690.110779,508.222168 
	C688.451660,513.999878 683.893616,519.042542 685.508362,525.851013 
	C685.719910,526.742920 682.726074,528.600769 681.559937,530.643433 
	C679.981262,533.408936 682.297119,536.050842 680.195801,539.011902 
	C677.155762,543.295898 675.961243,548.842834 673.578735,553.652466 
	C670.916626,559.026428 667.873596,564.566956 665.825012,569.832214 
	C663.375122,576.129089 658.764954,581.581482 657.761658,588.849548 
	C657.371765,591.674011 653.772400,595.401794 652.037842,599.091553 
	C650.957458,601.389771 649.971802,603.916870 648.410767,606.186035 
	C646.140015,609.486755 643.936890,612.934753 641.753906,616.351013 
	C640.281433,618.655334 638.338684,620.493408 640.433411,623.934937 
	C641.515198,625.712219 639.067505,628.416443 636.691589,631.234985 
	C634.124146,618.611572 627.520325,608.802124 619.773132,599.234863 
z"/>
<path fill="#5D3525" opacity="1.000000" stroke="none" 
	d="
M486.069550,388.194092 
	C448.496765,465.442200 414.404205,543.638733 393.672485,627.103088 
	C392.107727,622.081055 393.465912,617.367188 394.521240,612.723938 
	C402.014954,579.752625 413.275940,547.961365 424.951660,516.304810 
	C445.009796,461.920898 470.516968,410.062225 497.879578,359.067291 
	C500.114319,354.902405 502.174591,350.581146 505.434967,347.076965 
	C505.822693,347.281738 506.210449,347.486511 506.598175,347.691284 
	C499.801300,361.076355 493.004425,374.461395 486.069550,388.194092 
z"/>
<path fill="#5F3828" opacity="1.000000" stroke="none" 
	d="
M436.994873,524.078247 
	C429.401764,543.202759 423.469513,562.578918 414.100220,580.564148 
	C439.755737,500.566650 473.973175,424.260681 513.959106,350.451202 
	C486.804230,407.520996 459.987762,464.744537 436.994873,524.078247 
z"/>
<path fill="#5F3828" opacity="1.000000" stroke="none" 
	d="
M657.996704,428.376953 
	C659.826294,430.110199 660.239319,427.426086 661.094849,426.544464 
	C672.724121,414.560089 682.499390,401.070801 692.424133,387.704346 
	C693.011902,386.912720 693.693176,386.190521 694.490784,385.246948 
	C693.088013,397.673553 633.155334,467.170349 619.158875,472.348907 
	C620.366821,469.251678 622.580017,467.535461 624.414917,465.594788 
	C635.056458,454.339783 645.744385,443.128662 656.397888,431.884949 
	C657.288269,430.945221 658.502991,430.160950 657.996704,428.376953 
z"/>
<path fill="#5F3728" opacity="1.000000" stroke="none" 
	d="
M575.278625,521.243408 
	C570.979004,524.222534 567.176697,527.346313 562.432800,528.944397 
	C596.120789,502.096619 627.832947,473.153442 658.564819,441.956085 
	C659.285828,445.484161 657.245728,446.574799 656.071289,447.894318 
	C641.759094,463.973358 625.897461,478.463226 609.667542,492.544708 
	C598.481628,502.249847 587.396423,512.088867 575.278625,521.243408 
z"/>
<path fill="#603929" opacity="1.000000" stroke="none" 
	d="
M454.844910,431.330811 
	C444.390656,457.552124 433.810242,483.335022 421.004822,508.135254 
	C422.528168,499.965881 425.840912,492.481445 429.002136,484.958557 
	C435.954529,468.413666 443.028137,451.918091 451.005798,435.832428 
	C451.950104,433.928406 453.284271,432.217560 454.450439,430.425446 
	C454.469971,430.395416 454.704193,430.437286 454.745789,430.503601 
	C454.831329,430.639862 454.854218,430.815460 454.844910,431.330811 
z"/>
<path fill="#684334" opacity="1.000000" stroke="none" 
	d="
M402.238586,557.179688 
	C404.068848,553.555542 404.626953,549.656494 408.235443,546.323547 
	C407.319275,553.365723 404.905182,558.777954 401.221436,564.538330 
	C400.077393,561.502747 401.754028,559.594238 402.238586,557.179688 
z"/>
<path fill="#91766B" opacity="1.000000" stroke="none" 
	d="
M171.119568,317.173035 
	C169.772858,318.739685 169.481369,320.882599 167.060211,321.276306 
	C166.255112,316.332642 170.426636,313.783234 172.877426,310.555725 
	C173.709137,309.460449 174.714645,307.930420 176.317719,306.797180 
	C176.519852,308.310791 178.904434,310.062836 176.171600,311.813354 
	C175.012344,313.242432 173.623108,313.804565 172.254425,314.885071 
	C172.076828,315.141663 172.043396,315.050995 172.091187,315.043884 
	C171.442902,315.442169 171.492783,316.218109 171.119568,317.173035 
z"/>
<path fill="#664031" opacity="1.000000" stroke="none" 
	d="
M398.637726,570.132629 
	C400.856018,569.353516 400.461426,570.767090 400.366638,571.763794 
	C399.988831,575.735718 398.433685,579.294373 395.968781,583.620056 
	C395.254303,578.278442 396.686371,574.299988 398.637726,570.132629 
z"/>
<path fill="#6E4A3C" opacity="1.000000" stroke="none" 
	d="
M410.337311,538.882263 
	C409.896301,533.082581 413.025269,528.267090 415.599884,523.252319 
	C415.706909,528.989502 412.842255,533.746887 410.337311,538.882263 
z"/>
<path fill="#684233" opacity="1.000000" stroke="none" 
	d="
M600.476135,672.322021 
	C601.361938,671.465820 602.356262,670.077759 602.786865,671.664124 
	C603.464111,674.159668 597.989075,680.914429 594.593262,681.880920 
	C596.131348,678.329224 598.110779,675.423889 600.476135,672.322021 
z"/>
<path fill="#826457" opacity="1.000000" stroke="none" 
	d="
M323.068817,525.901794 
	C321.358154,526.056274 319.999756,526.134766 320.403381,523.800964 
	C324.711060,526.191284 324.324005,521.972778 325.345123,520.280640 
	C326.245483,518.788635 324.599640,516.606079 326.652008,514.923340 
	C328.489136,519.578491 327.530518,523.134766 323.068817,525.901794 
z"/>
<path fill="#694436" opacity="1.000000" stroke="none" 
	d="
M657.641602,427.724365 
	C657.549438,428.145355 657.593262,427.944977 657.627625,427.925598 
	C655.682129,429.286469 653.702332,430.666748 651.722473,432.047058 
	C653.781555,428.405151 655.939575,424.946075 659.843384,422.784760 
	C660.253052,425.094421 658.395630,425.897308 657.641602,427.724365 
z"/>
<path fill="#6E4A3C" opacity="1.000000" stroke="none" 
	d="
M582.232788,689.192139 
	C583.283447,687.979004 583.520630,686.505859 585.341248,685.905151 
	C585.114075,690.033264 583.210815,692.883545 580.026123,695.992310 
	C579.613281,692.885376 581.003662,691.239075 582.232788,689.192139 
z"/>
<path fill="#93786E" opacity="1.000000" stroke="none" 
	d="
M151.597748,827.003174 
	C151.024323,828.310974 154.209229,829.776550 151.515198,831.093262 
	C149.232391,823.902588 145.668808,831.067383 142.566528,829.945312 
	C144.543457,825.983154 147.632690,825.856201 151.597748,827.003174 
z"/>
<path fill="#7C5C4F" opacity="1.000000" stroke="none" 
	d="
M336.718597,582.097534 
	C335.702789,585.237793 334.373718,588.460571 333.044678,591.683411 
	C332.659821,591.528870 332.274994,591.374390 331.890167,591.219849 
	C333.210419,588.135437 330.993805,583.689331 336.718597,582.097534 
z"/>
<path fill="#775548" opacity="1.000000" stroke="none" 
	d="
M28.834229,587.208984 
	C32.313931,587.025452 29.731274,590.810303 31.962215,591.766174 
	C30.594973,593.289734 30.392218,594.880066 30.510181,596.911255 
	C28.927908,597.742798 28.297926,597.430298 28.489584,595.478516 
	C28.751507,592.811096 28.568336,590.099915 28.834229,587.208984 
z"/>
<path fill="#694436" opacity="1.000000" stroke="none" 
	d="
M670.169067,409.173248 
	C669.699280,413.598846 665.732422,415.353973 662.853149,418.077026 
	C663.863281,414.041443 666.605469,411.470459 670.169067,409.173248 
z"/>
<path fill="#9D857B" opacity="1.000000" stroke="none" 
	d="
M157.224365,777.906494 
	C156.996857,776.389282 157.845215,775.824097 159.542847,775.882446 
	C159.894318,778.845154 159.589828,781.666565 156.880325,783.909668 
	C156.247849,784.181702 155.892914,784.289917 155.103912,784.049622 
	C155.939484,781.953613 158.343719,780.781616 157.224365,777.906494 
z"/>
<path fill="#684233" opacity="1.000000" stroke="none" 
	d="
M592.688477,685.075378 
	C594.138672,689.655640 593.662109,690.401062 588.947510,690.834045 
	C589.515259,688.472534 591.002991,686.834534 592.688477,685.075378 
z"/>
<path fill="#633D2D" opacity="1.000000" stroke="none" 
	d="
M389.953247,637.382690 
	C390.369446,635.931274 391.284180,635.785461 391.732910,636.594299 
	C392.718323,638.370544 392.620239,640.193298 391.136871,641.888123 
	C389.383698,640.697754 390.152344,639.098267 389.953247,637.382690 
z"/>
<path fill="#F2E2B6" opacity="1.000000" stroke="none" 
	d="
M714.394043,527.177246 
	C715.352417,525.905273 714.453125,524.151794 716.305542,523.436523 
	C717.702698,525.747559 716.662476,527.933167 715.119995,529.001892 
	C713.516541,530.112854 714.250671,528.235901 714.394043,527.177246 
z"/>
<path fill="#7C5C4F" opacity="1.000000" stroke="none" 
	d="
M154.350342,783.828491 
	C154.991760,783.763062 155.313675,783.824951 156.119202,783.980225 
	C155.385681,786.747192 153.283920,787.471191 150.510559,786.751099 
	C150.806137,784.759949 153.155411,785.252747 154.350342,783.828491 
z"/>
<path fill="#9A8177" opacity="1.000000" stroke="none" 
	d="
M429.340485,833.192139 
	C429.052216,832.787537 429.055389,832.510620 429.053986,831.818298 
	C430.531281,830.661560 431.762390,830.438538 432.099304,832.639099 
	C432.215393,833.397400 432.787781,834.253540 431.788605,834.682800 
	C430.566345,835.207825 430.235138,833.971130 429.340485,833.192139 
z"/>
<path fill="#724F41" opacity="1.000000" stroke="none" 
	d="
M618.799744,473.816895 
	C617.567322,475.322296 616.144165,476.647491 614.396973,478.025513 
	C614.072937,478.078369 613.675659,477.921509 613.603516,477.720490 
	C614.803894,476.053406 616.076294,474.587372 617.643799,472.978943 
	C618.123596,473.135590 618.347046,473.402252 618.799744,473.816895 
z"/>
<path fill="#C6B7B2" opacity="1.000000" stroke="none" 
	d="
M30.539988,597.234253 
	C29.851969,595.425110 29.100668,593.584534 31.539658,592.066772 
	C31.605740,593.546875 31.267513,595.018250 30.740955,596.824585 
	C30.552622,597.159607 30.531006,597.208862 30.539988,597.234253 
z"/>
<path fill="#7C5C4F" opacity="1.000000" stroke="none" 
	d="
M339.173401,582.221191 
	C340.610229,582.511719 339.905121,583.586487 339.503296,584.740479 
	C338.440033,584.148926 338.655273,583.329102 339.173401,582.221191 
z"/>
<path fill="#7C5C4F" opacity="1.000000" stroke="none" 
	d="
M337.772827,580.253906 
	C338.303802,580.439209 338.646729,580.885254 339.023315,581.618164 
	C338.606323,581.941528 338.155609,581.977966 337.368408,582.014648 
	C337.031891,582.014954 337.077087,582.059265 337.105042,582.078369 
	C336.564331,581.364502 337.197235,580.974548 337.772827,580.253906 
z"/>
<path fill="#684233" opacity="1.000000" stroke="none" 
	d="
M593.063843,685.070435 
	C593.228760,684.631165 593.374207,684.171082 593.519653,683.711060 
	C593.509155,684.088501 593.498596,684.465942 593.243408,684.929382 
	C592.998779,685.015381 593.044312,685.049683 593.063843,685.070435 
z"/>
<path fill="#522716" opacity="1.000000" stroke="none" 
	d="
M300.598602,662.351257 
	C300.701080,662.306091 300.745636,662.520386 300.745636,662.520386 
	C300.745636,662.520386 300.496124,662.396423 300.598602,662.351257 
z"/>
<path fill="#E6C570" opacity="1.000000" stroke="none" 
	d="
M815.401855,638.323730 
	C815.510620,638.237854 815.583008,638.532715 815.583008,638.532715 
	C815.583008,638.532715 815.293091,638.409607 815.401855,638.323730 
z"/>
<path fill="#6E4A3C" opacity="1.000000" stroke="none" 
	d="
M410.028992,539.109802 
	C410.015350,539.137146 409.872284,539.054810 409.872284,539.054810 
	C409.872284,539.054810 410.063202,539.208557 410.082214,539.136719 
	C410.101196,539.064941 410.042664,539.082458 410.028992,539.109802 
z"/>
<path fill="#724F41" opacity="1.000000" stroke="none" 
	d="
M612.898621,479.019653 
	C612.862305,479.218536 612.684326,479.405060 612.506287,479.591614 
	C612.589783,479.396851 612.673340,479.202118 612.898621,479.019653 
z"/>
<path fill="#724F41" opacity="1.000000" stroke="none" 
	d="
M613.939697,477.936646 
	C613.895691,478.360229 613.718445,478.642029 613.290771,478.977905 
	C613.040344,479.031982 613.089355,479.073486 613.117798,479.094360 
	C613.127319,478.732361 613.108337,478.349426 613.310425,477.742981 
	C613.531433,477.519470 613.806396,477.794861 613.939697,477.936646 
z"/>
<path fill="#512716" opacity="1.000000" stroke="none" 
	d="
M121.204506,378.600952 
	C121.016144,378.757690 120.705597,379.141052 120.639771,379.102844 
	C120.227211,378.863403 120.292686,378.642517 120.969574,378.630493 
	C121.175583,378.695618 121.195465,378.632690 121.204506,378.600952 
z"/>
<path fill="#522716" opacity="1.000000" stroke="none" 
	d="
M185.941650,886.956238 
	C185.846649,887.247437 185.760834,887.833130 185.719803,887.830017 
	C185.212921,887.791443 185.089966,887.516052 185.715393,887.055969 
	C186.027710,887.024231 185.971634,886.977173 185.941650,886.956238 
z"/>
<path fill="#5F3828" opacity="1.000000" stroke="none" 
	d="
M619.187561,473.596283 
	C618.713257,473.774994 618.436096,473.552856 618.048828,473.083649 
	C618.547546,472.445404 619.028442,472.569366 619.187561,473.596283 
z"/>
<path fill="#F1EDEC" opacity="1.000000" stroke="none" 
	d="
M172.368240,315.388123 
	C171.901596,312.904083 173.635422,312.520874 175.534973,311.979675 
	C175.585281,313.903992 174.016373,314.674652 172.368240,315.388123 
z"/>
<path fill="#F1EDEC" opacity="1.000000" stroke="none" 
	d="
M171.354263,317.283264 
	C171.126434,316.747040 171.254883,315.992279 171.761169,315.137146 
	C173.251938,315.978058 171.996521,316.418945 171.354263,317.283264 
z"/>
<path fill="#FFFFFE" opacity="1.000000" stroke="none" 
	d="
M926.013672,703.022217 
	C926.026855,703.038513 926.206848,702.580750 926.206848,702.580750 
	C926.206848,702.580750 926.199646,702.874084 926.083008,702.928101 
	C925.966431,702.982117 926.000549,703.005981 926.013672,703.022217 
z"/>
<path fill="#FFFFFE" opacity="1.000000" stroke="none" 
	d="
M984.063599,541.072266 
	C983.969482,541.382080 983.751343,541.564758 983.533142,541.747498 
	C983.470276,541.494324 983.407349,541.241211 983.516479,540.840942 
	C983.688538,540.693909 983.939514,540.945251 984.063599,541.072266 
z"/>
</svg>